<svg width="91" height="91" viewBox="0 0 91 91" fill="none" xmlns="http://www.w3.org/2000/svg">
<path d="M65.4062 2.13281H51.1875C50.0096 2.13281 49.0547 3.08771 49.0547 4.26562V8.53125C49.0547 9.70917 50.0096 10.6641 51.1875 10.6641H65.4062C66.5842 10.6641 67.5391 9.70917 67.5391 8.53125V4.26562C67.5391 3.08771 66.5842 2.13281 65.4062 2.13281Z" fill="#3D79B0"/>
<path d="M24.1719 33.4141H9.95312C9.38747 33.4141 8.84498 33.6388 8.445 34.0387C8.04502 34.4387 7.82031 34.9812 7.82031 35.5469C7.82031 36.1125 8.04502 36.655 8.445 37.055C8.84498 37.455 9.38747 37.6797 9.95312 37.6797H24.1719C24.7375 37.6797 25.28 37.455 25.68 37.055C26.08 36.655 26.3047 36.1125 26.3047 35.5469C26.3047 34.9812 26.08 34.4387 25.68 34.0387C25.28 33.6388 24.7375 33.4141 24.1719 33.4141Z" fill="#3D79B0"/>
<path d="M23.4609 52.6094C23.4609 52.0437 23.2362 51.5012 22.8363 51.1012C22.4363 50.7013 21.8938 50.4766 21.3281 50.4766H7.10938C6.54372 50.4766 6.00123 50.7013 5.60125 51.1012C5.20127 51.5012 4.97656 52.0437 4.97656 52.6094C4.97656 53.175 5.20127 53.7175 5.60125 54.1175C6.00123 54.5175 6.54372 54.7422 7.10938 54.7422H21.3281C21.8938 54.7422 22.4363 54.5175 22.8363 54.1175C23.2362 53.7175 23.4609 53.175 23.4609 52.6094Z" fill="#3D79B0"/>
<path d="M22.75 59.0078H12.7969C12.2312 59.0078 11.6887 59.2325 11.2887 59.6325C10.8888 60.0325 10.6641 60.575 10.6641 61.1406C10.6641 61.7063 10.8888 62.2488 11.2887 62.6488C11.6887 63.0487 12.2312 63.2734 12.7969 63.2734H22.75C23.3157 63.2734 23.8581 63.0487 24.2581 62.6488C24.6581 62.2488 24.8828 61.7063 24.8828 61.1406C24.8828 60.575 24.6581 60.0325 24.2581 59.6325C23.8581 59.2325 23.3157 59.0078 22.75 59.0078Z" fill="#3D79B0"/>
<path d="M23.4609 44.0781C23.4609 43.5125 23.2362 42.97 22.8363 42.57C22.4363 42.17 21.8938 41.9453 21.3281 41.9453H2.84375C2.27809 41.9453 1.7356 42.17 1.33562 42.57C0.935644 42.97 0.710938 43.5125 0.710938 44.0781C0.710938 44.6438 0.935644 45.1863 1.33562 45.5863C1.7356 45.9862 2.27809 46.2109 2.84375 46.2109H21.3281C21.8938 46.2109 22.4363 45.9862 22.8363 45.5863C23.2362 45.1863 23.4609 44.6438 23.4609 44.0781Z" fill="#3D79B0"/>
<path d="M58.2969 48.3438V24.1719C44.9684 24.1719 34.125 35.0153 34.125 48.3438C34.125 61.6722 44.9684 72.5156 58.2969 72.5156C71.6254 72.5156 82.4688 61.6722 82.4688 48.3438H58.2969Z" fill="#3D79B0"/>
<path d="M81.6899 26.5452L83.9768 24.2581C84.1775 24.0606 84.3372 23.8254 84.4465 23.5659C84.5558 23.3065 84.6127 23.0279 84.6138 22.7464C84.615 22.4649 84.5604 22.1859 84.4532 21.9255C84.346 21.6652 84.1883 21.4287 83.9892 21.2296C83.7901 21.0305 83.5536 20.8728 83.2932 20.7656C83.0329 20.6584 82.7539 20.6038 82.4724 20.6049C82.1908 20.6061 81.9123 20.6629 81.6528 20.7723C81.3934 20.8816 81.1581 21.0412 80.9607 21.2419L78.5805 23.622C73.9966 19.8459 68.4486 17.4262 62.5625 16.6359V12.7969H54.0313V16.6359C48.1453 17.4259 42.5973 19.8452 38.0133 23.6209L35.6331 21.2409C35.4356 21.0402 35.2004 20.8805 34.9409 20.7712C34.6815 20.6619 34.403 20.605 34.1214 20.6039C33.8399 20.6027 33.5609 20.6573 33.3005 20.7645C33.0402 20.8717 32.8037 21.0294 32.6046 21.2285C32.4055 21.4276 32.2478 21.6641 32.1406 21.9245C32.0334 22.1848 31.9788 22.4638 31.9799 22.7453C31.9811 23.0269 32.038 23.3054 32.1473 23.5649C32.2566 23.8243 32.4162 24.0596 32.6169 24.257L34.9038 26.5441C29.3732 32.455 26.2988 40.2489 26.3047 48.3438C26.3047 65.9842 40.6564 80.3359 58.2969 80.3359C75.9374 80.3359 90.2891 65.9842 90.2891 48.3438C90.2947 40.2492 87.2204 32.4558 81.6899 26.5452ZM58.2969 74.6484C53.0943 74.6484 48.0086 73.1057 43.6828 70.2153C39.357 67.3249 35.9855 63.2167 33.9945 58.4101C32.0036 53.6036 31.4827 48.3146 32.4976 43.212C33.5126 38.1094 36.0179 33.4223 39.6967 29.7435C43.3754 26.0647 48.0625 23.5595 53.1651 22.5445C58.2677 21.5295 63.5567 22.0504 68.3633 24.0414C73.1698 26.0323 77.278 29.4039 80.1684 33.7296C83.0588 38.0554 84.6016 43.1412 84.6016 48.3438C84.6016 51.7981 83.9212 55.2187 82.5993 58.4101C81.2773 61.6016 79.3397 64.5014 76.8971 66.944C74.4545 69.3866 71.5547 71.3242 68.3633 72.6461C65.1718 73.968 61.7513 74.6484 58.2969 74.6484Z" fill="#3D79B0"/>
</svg>
