<svg width="91" height="91" viewBox="0 0 91 91" fill="none" xmlns="http://www.w3.org/2000/svg">
<g clip-path="url(#clip0)">
<path d="M74.2274 0H16.7725C13.8212 0 11.4196 2.40169 11.4196 5.35294V85.6471C11.4196 88.5983 13.8212 91 16.7725 91H74.2274C77.1786 91 79.5803 88.5983 79.5803 85.6471V5.35294C79.5803 2.40169 77.1786 0 74.2274 0ZM34.0803 75.298H25.5156C24.0375 75.298 22.8392 74.0997 22.8392 72.6216C22.8392 71.1434 24.0375 69.9451 25.5156 69.9451H34.0803C35.5585 69.9451 36.7568 71.1434 36.7568 72.6216C36.7568 74.0997 35.5585 75.298 34.0803 75.298ZM34.0803 63.8784H25.5156C24.0375 63.8784 22.8392 62.6801 22.8392 61.202C22.8392 59.7238 24.0375 58.5255 25.5156 58.5255H34.0803C35.5585 58.5255 36.7568 59.7238 36.7568 61.202C36.7568 62.6801 35.5585 63.8784 34.0803 63.8784ZM34.0803 52.4588H25.5156C24.0375 52.4588 22.8392 51.2605 22.8392 49.7823C22.8392 48.3042 24.0375 47.1059 25.5156 47.1059H34.0803C35.5585 47.1059 36.7568 48.3042 36.7568 49.7823C36.7568 51.2605 35.5585 52.4588 34.0803 52.4588ZM34.71 41.3961H24.8858C23.7554 41.3961 22.839 40.1977 22.839 38.7196C22.839 37.2415 23.7554 36.0431 24.8858 36.0431H34.71C35.8404 36.0431 36.7568 37.2415 36.7568 38.7196C36.7568 40.1977 35.8404 41.3961 34.71 41.3961ZM68.1607 74.049C68.1607 75.9559 66.2251 77.2433 64.4713 76.5264L55.4921 72.8553L46.5129 76.5265C44.7537 77.246 42.8235 75.9491 42.8235 74.049C42.8235 48.2255 42.8014 49.7793 42.8706 49.4067C42.2543 41.9494 48.1639 35.6863 55.4921 35.6863C62.4775 35.6863 68.1607 41.3695 68.1607 48.3549V74.049ZM65.4843 29.6196H25.5156C24.0382 29.6196 22.8392 28.4205 22.8392 26.9431C22.8392 25.4657 24.0382 24.2667 25.5156 24.2667H65.4843C66.9617 24.2667 68.1607 25.4657 68.1607 26.9431C68.1607 28.4205 66.9617 29.6196 65.4843 29.6196ZM65.4843 18.2H25.5156C24.0382 18.2 22.8392 17.0009 22.8392 15.5235C22.8392 14.0461 24.0382 12.8471 25.5156 12.8471H65.4843C66.9617 12.8471 68.1607 14.0461 68.1607 15.5235C68.1607 17.0009 66.9617 18.2 65.4843 18.2Z" fill="#3D79B0"/>
<path d="M55.4922 55.6706C59.5325 55.6706 62.8079 52.3952 62.8079 48.3549C62.8079 44.3146 59.5325 41.0392 55.4922 41.0392C51.4519 41.0392 48.1765 44.3146 48.1765 48.3549C48.1765 52.3952 51.4519 55.6706 55.4922 55.6706Z" fill="#3D79B0"/>
<path d="M48.1765 58.688V70.0632L54.4792 67.4863C55.1286 67.221 55.8558 67.221 56.5052 67.4863L62.8079 70.0632V58.688C58.4179 61.8052 52.562 61.802 48.1765 58.688Z" fill="#3D79B0"/>
</g>
<defs>
<clipPath id="clip0">
<rect width="91" height="91" fill="white"/>
</clipPath>
</defs>
</svg>
