<svg width="91" height="91" viewBox="0 0 91 91" fill="none" xmlns="http://www.w3.org/2000/svg">
<path d="M7.99805 32.1673H2.66602C1.19242 32.1673 0 33.3597 0 34.8333C0 36.3069 1.19242 37.4993 2.66602 37.4993H7.99805C9.47164 37.4993 10.6641 36.3069 10.6641 34.8333C10.6641 33.3597 9.47164 32.1673 7.99805 32.1673Z" fill="#3D79B0"/>
<path d="M9.27972 18.8372L5.5098 15.0674C4.46845 14.0261 2.78122 14.0261 1.73987 15.0674C0.698526 16.1088 0.698526 17.796 1.73987 18.8374L5.5098 22.6071C6.55132 23.6486 8.2382 23.6486 9.27972 22.6071C10.3211 21.5658 10.3211 19.8785 9.27972 18.8372Z" fill="#3D79B0"/>
<path d="M9.27972 47.0596C8.23837 46.0183 6.55114 46.0181 5.5098 47.0596L1.73987 50.8295C0.698526 51.8709 0.698526 53.5581 1.73987 54.5995C2.7814 55.641 4.46827 55.641 5.5098 54.5995L9.27972 50.8295C10.3211 49.7882 10.3211 48.101 9.27972 47.0596Z" fill="#3D79B0"/>
<path d="M88.334 32.1673H83.002C81.5284 32.1673 80.3359 33.3597 80.3359 34.8333C80.3359 36.3069 81.5284 37.4993 83.002 37.4993H88.334C89.8076 37.4993 91 36.3069 91 34.8333C91 33.3597 89.8076 32.1673 88.334 32.1673Z" fill="#3D79B0"/>
<path d="M89.2601 15.0673C88.2187 14.0259 86.5315 14.0259 85.4901 15.0673L81.7202 18.8372C80.6789 19.8785 80.6789 21.5658 81.7202 22.6071C82.7617 23.6486 84.4486 23.6486 85.4901 22.6071L89.2601 18.8372C90.3014 17.7958 90.3014 16.1086 89.2601 15.0673Z" fill="#3D79B0"/>
<path d="M89.2601 50.8294L85.4901 47.0596C84.4488 46.0183 82.7616 46.0183 81.7202 47.0596C80.6789 48.101 80.6789 49.7882 81.7202 50.8295L85.4901 54.5993C86.5317 55.6408 88.2185 55.6408 89.2601 54.5993C90.3014 53.5579 90.3014 51.8707 89.2601 50.8294Z" fill="#3D79B0"/>
<path d="M65.6643 7.15185C58.1452 1.03885 48.2806 -1.3147 38.6293 0.715911C26.5958 3.22836 16.796 13.1746 14.2447 25.2029C12.0759 35.4374 14.7523 45.711 21.584 53.3914C24.346 56.4994 26.0309 60.2507 26.5835 64.1596H34.8359V40.1655C34.8359 39.133 42.6534 23.9003 43.1151 22.977C44.0212 21.1701 46.9787 21.1701 47.8848 22.977C48.3684 23.9442 56.164 39.1847 56.164 40.1655V64.1596H64.4256C64.9971 60.2694 66.7314 56.4584 69.5721 53.217C74.6804 47.3929 77.4921 39.9154 77.4921 32.1673C77.4921 22.49 73.1807 13.2597 65.6643 7.15185Z" fill="#3D79B0"/>
<path d="M45.5 45.2631C43.6974 45.2631 41.9019 44.949 40.168 44.3757V64.1596H50.832V44.3757C49.0981 44.949 47.3026 45.2631 45.5 45.2631Z" fill="#3D79B0"/>
<path d="M26.8379 69.4917V72.1577C26.8379 76.568 30.4256 80.1557 34.8359 80.1557H56.1641C60.5744 80.1557 64.1621 76.568 64.1621 72.1577V69.4917H26.8379Z" fill="#3D79B0"/>
<path d="M45.5001 30.1313L41.0942 38.943C43.9415 40.1095 47.0587 40.1095 49.906 38.943L45.5001 30.1313Z" fill="#3D79B0"/>
<path d="M32.661 85.4877C33.7653 88.5842 36.6968 90.9975 40.168 90.9975H50.832C54.3032 90.9975 57.2347 88.5842 58.339 85.4877H32.661Z" fill="#3D79B0"/>
</svg>
